<mxfile host="app.diagrams.net" agent="Mozilla/5.0 (Windows NT 10.0; Win64; x64) AppleWebKit/537.36 (KHTML, like Gecko) Chrome/130.0.0.0 Safari/537.36" version="24.7.17">
  <diagram name="Page-1" id="LruVm3f_gUJ0hTBGyI3_">
    <mxGraphModel dx="2713" dy="1700" grid="1" gridSize="10" guides="1" tooltips="1" connect="1" arrows="1" fold="1" page="1" pageScale="1" pageWidth="850" pageHeight="1100" math="0" shadow="0">
      <root>
        <mxCell id="0" />
        <mxCell id="1" parent="0" />
        <mxCell id="wDu6coxrCI0hIiS3W681-1" value="" style="swimlane;startSize=0;" parent="1" vertex="1">
          <mxGeometry x="190" y="60" width="800" height="940" as="geometry" />
        </mxCell>
        <mxCell id="wDu6coxrCI0hIiS3W681-2" value="Log Out" style="strokeWidth=2;html=1;shape=mxgraph.flowchart.start_1;whiteSpace=wrap;" parent="wDu6coxrCI0hIiS3W681-1" vertex="1">
          <mxGeometry x="150" y="800" width="100" height="60" as="geometry" />
        </mxCell>
        <mxCell id="wDu6coxrCI0hIiS3W681-3" value="Log In" style="ellipse;whiteSpace=wrap;html=1;" parent="wDu6coxrCI0hIiS3W681-1" vertex="1">
          <mxGeometry x="240" y="30" width="120" height="80" as="geometry" />
        </mxCell>
        <mxCell id="wDu6coxrCI0hIiS3W681-4" value="" style="endArrow=classic;html=1;rounded=0;exitX=0.714;exitY=1.013;exitDx=0;exitDy=0;entryX=0.414;entryY=-0.024;entryDx=0;entryDy=0;entryPerimeter=0;exitPerimeter=0;" parent="wDu6coxrCI0hIiS3W681-1" source="wDu6coxrCI0hIiS3W681-3" target="wDu6coxrCI0hIiS3W681-7" edge="1">
          <mxGeometry width="50" height="50" relative="1" as="geometry">
            <mxPoint x="350" y="90" as="sourcePoint" />
            <mxPoint x="330" y="150" as="targetPoint" />
          </mxGeometry>
        </mxCell>
        <mxCell id="wDu6coxrCI0hIiS3W681-5" value="&amp;lt;&amp;lt;include&amp;gt;&amp;gt;" style="text;html=1;align=center;verticalAlign=middle;whiteSpace=wrap;rounded=0;" parent="wDu6coxrCI0hIiS3W681-1" vertex="1">
          <mxGeometry x="360" y="110" width="60" height="30" as="geometry" />
        </mxCell>
        <mxCell id="wDu6coxrCI0hIiS3W681-6" value="Specify Username/Password" style="ellipse;whiteSpace=wrap;html=1;" parent="wDu6coxrCI0hIiS3W681-1" vertex="1">
          <mxGeometry x="150" y="150" width="130" height="80" as="geometry" />
        </mxCell>
        <mxCell id="wDu6coxrCI0hIiS3W681-7" value="Select Role" style="ellipse;whiteSpace=wrap;html=1;" parent="wDu6coxrCI0hIiS3W681-1" vertex="1">
          <mxGeometry x="300" y="150" width="120" height="70" as="geometry" />
        </mxCell>
        <mxCell id="wDu6coxrCI0hIiS3W681-8" value="" style="endArrow=classic;html=1;rounded=0;exitX=0.292;exitY=0.954;exitDx=0;exitDy=0;entryX=0.621;entryY=0.015;entryDx=0;entryDy=0;exitPerimeter=0;entryPerimeter=0;" parent="wDu6coxrCI0hIiS3W681-1" source="wDu6coxrCI0hIiS3W681-3" target="wDu6coxrCI0hIiS3W681-6" edge="1">
          <mxGeometry width="50" height="50" relative="1" as="geometry">
            <mxPoint x="70" y="170" as="sourcePoint" />
            <mxPoint x="120" y="120" as="targetPoint" />
          </mxGeometry>
        </mxCell>
        <mxCell id="wDu6coxrCI0hIiS3W681-9" value="&amp;lt;&amp;lt;include&amp;gt;&amp;gt;" style="text;html=1;align=center;verticalAlign=middle;whiteSpace=wrap;rounded=0;" parent="wDu6coxrCI0hIiS3W681-1" vertex="1">
          <mxGeometry x="260" y="120" width="60" height="30" as="geometry" />
        </mxCell>
        <mxCell id="wDu6coxrCI0hIiS3W681-10" value="Perform Administrative Duties" style="ellipse;whiteSpace=wrap;html=1;" parent="wDu6coxrCI0hIiS3W681-1" vertex="1">
          <mxGeometry x="350" y="260" width="150" height="90" as="geometry" />
        </mxCell>
        <mxCell id="wDu6coxrCI0hIiS3W681-11" value="Modify/Delete Account" style="ellipse;whiteSpace=wrap;html=1;" parent="wDu6coxrCI0hIiS3W681-1" vertex="1">
          <mxGeometry x="250" y="350" width="100" height="70" as="geometry" />
        </mxCell>
        <mxCell id="wDu6coxrCI0hIiS3W681-12" value="List Accounts" style="ellipse;whiteSpace=wrap;html=1;" parent="wDu6coxrCI0hIiS3W681-1" vertex="1">
          <mxGeometry x="340" y="400" width="105" height="70" as="geometry" />
        </mxCell>
        <mxCell id="wDu6coxrCI0hIiS3W681-13" value="Invite New User" style="ellipse;whiteSpace=wrap;html=1;" parent="wDu6coxrCI0hIiS3W681-1" vertex="1">
          <mxGeometry x="450" y="370" width="105" height="70" as="geometry" />
        </mxCell>
        <mxCell id="wDu6coxrCI0hIiS3W681-14" value="" style="endArrow=classic;html=1;rounded=0;exitX=0.06;exitY=0.752;exitDx=0;exitDy=0;exitPerimeter=0;entryX=0.617;entryY=0.024;entryDx=0;entryDy=0;entryPerimeter=0;" parent="wDu6coxrCI0hIiS3W681-1" source="wDu6coxrCI0hIiS3W681-10" target="wDu6coxrCI0hIiS3W681-11" edge="1">
          <mxGeometry width="50" height="50" relative="1" as="geometry">
            <mxPoint x="260" y="340" as="sourcePoint" />
            <mxPoint x="310" y="290" as="targetPoint" />
          </mxGeometry>
        </mxCell>
        <mxCell id="wDu6coxrCI0hIiS3W681-15" value="" style="endArrow=classic;html=1;rounded=0;exitX=0.456;exitY=0.981;exitDx=0;exitDy=0;exitPerimeter=0;" parent="wDu6coxrCI0hIiS3W681-1" source="wDu6coxrCI0hIiS3W681-10" target="wDu6coxrCI0hIiS3W681-12" edge="1">
          <mxGeometry width="50" height="50" relative="1" as="geometry">
            <mxPoint x="130" y="420" as="sourcePoint" />
            <mxPoint x="180" y="370" as="targetPoint" />
          </mxGeometry>
        </mxCell>
        <mxCell id="wDu6coxrCI0hIiS3W681-16" value="" style="endArrow=classic;html=1;rounded=0;" parent="wDu6coxrCI0hIiS3W681-1" source="wDu6coxrCI0hIiS3W681-10" target="wDu6coxrCI0hIiS3W681-13" edge="1">
          <mxGeometry width="50" height="50" relative="1" as="geometry">
            <mxPoint x="120" y="390" as="sourcePoint" />
            <mxPoint x="170" y="340" as="targetPoint" />
          </mxGeometry>
        </mxCell>
        <mxCell id="wDu6coxrCI0hIiS3W681-17" value="&amp;lt;&amp;lt;inlcude&amp;gt;&amp;gt;" style="text;html=1;align=center;verticalAlign=middle;whiteSpace=wrap;rounded=0;" parent="wDu6coxrCI0hIiS3W681-1" vertex="1">
          <mxGeometry x="270" y="310" width="60" height="30" as="geometry" />
        </mxCell>
        <mxCell id="wDu6coxrCI0hIiS3W681-18" value="&amp;lt;&amp;lt;include&amp;gt;&amp;gt;" style="text;html=1;align=center;verticalAlign=middle;whiteSpace=wrap;rounded=0;" parent="wDu6coxrCI0hIiS3W681-1" vertex="1">
          <mxGeometry x="510" y="340" width="60" height="30" as="geometry" />
        </mxCell>
        <mxCell id="wDu6coxrCI0hIiS3W681-33" value="&amp;lt;&amp;lt;include&amp;gt;&amp;gt;" style="text;html=1;align=center;verticalAlign=middle;whiteSpace=wrap;rounded=0;" parent="wDu6coxrCI0hIiS3W681-1" vertex="1">
          <mxGeometry x="350" y="350" width="60" height="30" as="geometry" />
        </mxCell>
        <mxCell id="aeuv3wMsK-wRUXpCHh5g-1" value="Article Modification" style="ellipse;whiteSpace=wrap;html=1;" vertex="1" parent="wDu6coxrCI0hIiS3W681-1">
          <mxGeometry x="575" y="550" width="120" height="80" as="geometry" />
        </mxCell>
        <mxCell id="aeuv3wMsK-wRUXpCHh5g-4" value="Create Articles" style="ellipse;whiteSpace=wrap;html=1;" vertex="1" parent="wDu6coxrCI0hIiS3W681-1">
          <mxGeometry x="480" y="620" width="95" height="50" as="geometry" />
        </mxCell>
        <mxCell id="aeuv3wMsK-wRUXpCHh5g-5" value="Delete Articles" style="ellipse;whiteSpace=wrap;html=1;" vertex="1" parent="wDu6coxrCI0hIiS3W681-1">
          <mxGeometry x="660" y="670" width="90" height="50" as="geometry" />
        </mxCell>
        <mxCell id="aeuv3wMsK-wRUXpCHh5g-6" value="Update Articles" style="ellipse;whiteSpace=wrap;html=1;" vertex="1" parent="wDu6coxrCI0hIiS3W681-1">
          <mxGeometry x="530" y="700" width="90" height="50" as="geometry" />
        </mxCell>
        <mxCell id="aeuv3wMsK-wRUXpCHh5g-7" value="View Articles" style="ellipse;whiteSpace=wrap;html=1;" vertex="1" parent="wDu6coxrCI0hIiS3W681-1">
          <mxGeometry x="700" y="610" width="90" height="50" as="geometry" />
        </mxCell>
        <mxCell id="aeuv3wMsK-wRUXpCHh5g-11" value="" style="endArrow=classic;html=1;rounded=0;exitX=0;exitY=1;exitDx=0;exitDy=0;entryX=1;entryY=0;entryDx=0;entryDy=0;" edge="1" parent="wDu6coxrCI0hIiS3W681-1" source="aeuv3wMsK-wRUXpCHh5g-1" target="aeuv3wMsK-wRUXpCHh5g-4">
          <mxGeometry width="50" height="50" relative="1" as="geometry">
            <mxPoint x="467" y="720" as="sourcePoint" />
            <mxPoint x="489" y="748" as="targetPoint" />
            <Array as="points" />
          </mxGeometry>
        </mxCell>
        <mxCell id="aeuv3wMsK-wRUXpCHh5g-12" value="" style="endArrow=classic;html=1;rounded=0;entryX=0.638;entryY=0.122;entryDx=0;entryDy=0;entryPerimeter=0;exitX=0.384;exitY=1.007;exitDx=0;exitDy=0;exitPerimeter=0;" edge="1" parent="wDu6coxrCI0hIiS3W681-1" source="aeuv3wMsK-wRUXpCHh5g-1" target="aeuv3wMsK-wRUXpCHh5g-6">
          <mxGeometry width="50" height="50" relative="1" as="geometry">
            <mxPoint x="600" y="628" as="sourcePoint" />
            <mxPoint x="571" y="637" as="targetPoint" />
            <Array as="points" />
          </mxGeometry>
        </mxCell>
        <mxCell id="aeuv3wMsK-wRUXpCHh5g-13" value="" style="endArrow=classic;html=1;rounded=0;entryX=0.282;entryY=0.137;entryDx=0;entryDy=0;entryPerimeter=0;exitX=0.756;exitY=0.949;exitDx=0;exitDy=0;exitPerimeter=0;" edge="1" parent="wDu6coxrCI0hIiS3W681-1" source="aeuv3wMsK-wRUXpCHh5g-1" target="aeuv3wMsK-wRUXpCHh5g-5">
          <mxGeometry width="50" height="50" relative="1" as="geometry">
            <mxPoint x="631" y="641" as="sourcePoint" />
            <mxPoint x="622" y="686" as="targetPoint" />
            <Array as="points" />
          </mxGeometry>
        </mxCell>
        <mxCell id="aeuv3wMsK-wRUXpCHh5g-14" value="" style="endArrow=classic;html=1;rounded=0;exitX=1;exitY=0.5;exitDx=0;exitDy=0;" edge="1" parent="wDu6coxrCI0hIiS3W681-1" source="aeuv3wMsK-wRUXpCHh5g-1" target="aeuv3wMsK-wRUXpCHh5g-7">
          <mxGeometry width="50" height="50" relative="1" as="geometry">
            <mxPoint x="641" y="651" as="sourcePoint" />
            <mxPoint x="632" y="696" as="targetPoint" />
            <Array as="points" />
          </mxGeometry>
        </mxCell>
        <mxCell id="aeuv3wMsK-wRUXpCHh5g-15" value="&amp;lt;&amp;lt;include&amp;gt;&amp;gt;" style="text;html=1;align=center;verticalAlign=middle;whiteSpace=wrap;rounded=0;" vertex="1" parent="wDu6coxrCI0hIiS3W681-1">
          <mxGeometry x="515" y="590" width="60" height="30" as="geometry" />
        </mxCell>
        <mxCell id="aeuv3wMsK-wRUXpCHh5g-16" value="&amp;lt;&amp;lt;include&amp;gt;&amp;gt;" style="text;html=1;align=center;verticalAlign=middle;whiteSpace=wrap;rounded=0;" vertex="1" parent="wDu6coxrCI0hIiS3W681-1">
          <mxGeometry x="715" y="570" width="60" height="30" as="geometry" />
        </mxCell>
        <mxCell id="aeuv3wMsK-wRUXpCHh5g-17" value="&amp;lt;&amp;lt;include&amp;gt;&amp;gt;" style="text;html=1;align=center;verticalAlign=middle;whiteSpace=wrap;rounded=0;" vertex="1" parent="wDu6coxrCI0hIiS3W681-1">
          <mxGeometry x="540" y="670" width="60" height="30" as="geometry" />
        </mxCell>
        <mxCell id="aeuv3wMsK-wRUXpCHh5g-20" value="&amp;lt;&amp;lt;include&amp;gt;&amp;gt;" style="text;html=1;align=center;verticalAlign=middle;whiteSpace=wrap;rounded=0;" vertex="1" parent="wDu6coxrCI0hIiS3W681-1">
          <mxGeometry x="620" y="650" width="60" height="30" as="geometry" />
        </mxCell>
        <mxCell id="aeuv3wMsK-wRUXpCHh5g-21" value="List Help Articles" style="ellipse;whiteSpace=wrap;html=1;" vertex="1" parent="wDu6coxrCI0hIiS3W681-1">
          <mxGeometry x="140" y="520" width="120" height="70" as="geometry" />
        </mxCell>
        <mxCell id="aeuv3wMsK-wRUXpCHh5g-22" value="Backup/Restore Help System Data" style="ellipse;whiteSpace=wrap;html=1;" vertex="1" parent="wDu6coxrCI0hIiS3W681-1">
          <mxGeometry x="330" y="530" width="120" height="80" as="geometry" />
        </mxCell>
        <mxCell id="wDu6coxrCI0hIiS3W681-21" value="Admin" style="shape=umlActor;verticalLabelPosition=bottom;verticalAlign=top;html=1;outlineConnect=0;fontSize=12;" parent="1" vertex="1">
          <mxGeometry x="1000" y="325" width="30" height="60" as="geometry" />
        </mxCell>
        <mxCell id="wDu6coxrCI0hIiS3W681-22" value="Instructor" style="shape=umlActor;verticalLabelPosition=bottom;verticalAlign=top;html=1;" parent="1" vertex="1">
          <mxGeometry x="110" y="290" width="30" height="60" as="geometry" />
        </mxCell>
        <mxCell id="wDu6coxrCI0hIiS3W681-23" value="Student" style="shape=umlActor;verticalLabelPosition=bottom;verticalAlign=top;html=1;" parent="1" vertex="1">
          <mxGeometry x="110" y="530" width="30" height="60" as="geometry" />
        </mxCell>
        <mxCell id="wDu6coxrCI0hIiS3W681-24" value="" style="endArrow=none;html=1;rounded=0;entryX=0.019;entryY=0.623;entryDx=0;entryDy=0;entryPerimeter=0;exitX=0.333;exitY=0.667;exitDx=0;exitDy=0;exitPerimeter=0;" parent="1" target="wDu6coxrCI0hIiS3W681-3" edge="1" source="wDu6coxrCI0hIiS3W681-22">
          <mxGeometry width="50" height="50" relative="1" as="geometry">
            <mxPoint x="130" y="280" as="sourcePoint" />
            <mxPoint x="210" y="240" as="targetPoint" />
          </mxGeometry>
        </mxCell>
        <mxCell id="wDu6coxrCI0hIiS3W681-25" value="" style="endArrow=none;html=1;rounded=0;entryX=0;entryY=0.5;entryDx=0;entryDy=0;exitX=0.5;exitY=0.5;exitDx=0;exitDy=0;exitPerimeter=0;" parent="1" target="wDu6coxrCI0hIiS3W681-6" edge="1" source="wDu6coxrCI0hIiS3W681-22">
          <mxGeometry width="50" height="50" relative="1" as="geometry">
            <mxPoint x="170" y="260" as="sourcePoint" />
            <mxPoint x="442" y="150" as="targetPoint" />
          </mxGeometry>
        </mxCell>
        <mxCell id="wDu6coxrCI0hIiS3W681-26" value="" style="endArrow=none;html=1;rounded=0;" parent="1" source="wDu6coxrCI0hIiS3W681-10" edge="1" target="wDu6coxrCI0hIiS3W681-21">
          <mxGeometry width="50" height="50" relative="1" as="geometry">
            <mxPoint x="558" y="440" as="sourcePoint" />
            <mxPoint x="810" y="365" as="targetPoint" />
          </mxGeometry>
        </mxCell>
        <mxCell id="wDu6coxrCI0hIiS3W681-32" value="" style="endArrow=none;html=1;rounded=0;entryX=0;entryY=1;entryDx=0;entryDy=0;entryPerimeter=0;exitX=0.974;exitY=0.296;exitDx=0;exitDy=0;exitPerimeter=0;" parent="1" source="wDu6coxrCI0hIiS3W681-2" target="wDu6coxrCI0hIiS3W681-21" edge="1">
          <mxGeometry width="50" height="50" relative="1" as="geometry">
            <mxPoint x="470" y="520" as="sourcePoint" />
            <mxPoint x="744" y="743" as="targetPoint" />
          </mxGeometry>
        </mxCell>
        <mxCell id="wDu6coxrCI0hIiS3W681-34" value="User Testbed" style="text;html=1;align=center;verticalAlign=middle;whiteSpace=wrap;rounded=0;" parent="1" vertex="1">
          <mxGeometry x="425" y="10" width="110" height="30" as="geometry" />
        </mxCell>
        <mxCell id="wDu6coxrCI0hIiS3W681-28" value="" style="endArrow=none;html=1;rounded=0;exitX=1;exitY=0.5;exitDx=0;exitDy=0;entryX=0.5;entryY=0.5;entryDx=0;entryDy=0;entryPerimeter=0;" parent="1" source="wDu6coxrCI0hIiS3W681-3" edge="1" target="wDu6coxrCI0hIiS3W681-21">
          <mxGeometry width="50" height="50" relative="1" as="geometry">
            <mxPoint x="570" y="130" as="sourcePoint" />
            <mxPoint x="800" y="350" as="targetPoint" />
          </mxGeometry>
        </mxCell>
        <mxCell id="wDu6coxrCI0hIiS3W681-36" value="" style="endArrow=none;html=1;rounded=0;exitX=1;exitY=0.5;exitDx=0;exitDy=0;entryX=0.5;entryY=0.5;entryDx=0;entryDy=0;entryPerimeter=0;" parent="1" source="wDu6coxrCI0hIiS3W681-7" edge="1" target="wDu6coxrCI0hIiS3W681-21">
          <mxGeometry width="50" height="50" relative="1" as="geometry">
            <mxPoint x="690" y="320" as="sourcePoint" />
            <mxPoint x="800" y="360" as="targetPoint" />
          </mxGeometry>
        </mxCell>
        <mxCell id="wDu6coxrCI0hIiS3W681-30" value="" style="endArrow=none;html=1;rounded=0;entryX=0.04;entryY=0.383;entryDx=0;entryDy=0;entryPerimeter=0;exitX=0.356;exitY=0.727;exitDx=0;exitDy=0;exitPerimeter=0;" parent="1" target="wDu6coxrCI0hIiS3W681-2" edge="1" source="wDu6coxrCI0hIiS3W681-23">
          <mxGeometry width="50" height="50" relative="1" as="geometry">
            <mxPoint x="160" y="470" as="sourcePoint" />
            <mxPoint x="490" y="570" as="targetPoint" />
          </mxGeometry>
        </mxCell>
        <mxCell id="wDu6coxrCI0hIiS3W681-20" value="" style="endArrow=none;html=1;rounded=0;entryX=0.229;entryY=0.967;entryDx=0;entryDy=0;entryPerimeter=0;exitX=0.5;exitY=0.5;exitDx=0;exitDy=0;exitPerimeter=0;" parent="1" target="wDu6coxrCI0hIiS3W681-6" edge="1" source="wDu6coxrCI0hIiS3W681-23">
          <mxGeometry width="50" height="50" relative="1" as="geometry">
            <mxPoint x="168" y="440" as="sourcePoint" />
            <mxPoint x="430" y="320" as="targetPoint" />
          </mxGeometry>
        </mxCell>
        <mxCell id="wDu6coxrCI0hIiS3W681-19" value="" style="endArrow=none;html=1;rounded=0;entryX=0.012;entryY=0.612;entryDx=0;entryDy=0;entryPerimeter=0;exitX=0.5;exitY=0.5;exitDx=0;exitDy=0;exitPerimeter=0;" parent="1" target="wDu6coxrCI0hIiS3W681-3" edge="1" source="wDu6coxrCI0hIiS3W681-23">
          <mxGeometry width="50" height="50" relative="1" as="geometry">
            <mxPoint x="160" y="400" as="sourcePoint" />
            <mxPoint x="420" y="315" as="targetPoint" />
          </mxGeometry>
        </mxCell>
        <mxCell id="wDu6coxrCI0hIiS3W681-31" value="" style="endArrow=none;html=1;rounded=0;entryX=0.248;entryY=0.148;entryDx=0;entryDy=0;entryPerimeter=0;" parent="1" target="wDu6coxrCI0hIiS3W681-2" edge="1">
          <mxGeometry width="50" height="50" relative="1" as="geometry">
            <mxPoint x="130" y="330" as="sourcePoint" />
            <mxPoint x="430" y="546.5" as="targetPoint" />
          </mxGeometry>
        </mxCell>
        <mxCell id="aeuv3wMsK-wRUXpCHh5g-23" value="" style="endArrow=none;html=1;rounded=0;entryX=0.296;entryY=0.045;entryDx=0;entryDy=0;entryPerimeter=0;exitX=0;exitY=0.3333333333333333;exitDx=0;exitDy=0;exitPerimeter=0;" edge="1" parent="1" source="wDu6coxrCI0hIiS3W681-22" target="aeuv3wMsK-wRUXpCHh5g-21">
          <mxGeometry width="50" height="50" relative="1" as="geometry">
            <mxPoint x="130" y="340" as="sourcePoint" />
            <mxPoint x="442" y="150" as="targetPoint" />
          </mxGeometry>
        </mxCell>
        <mxCell id="aeuv3wMsK-wRUXpCHh5g-24" value="" style="endArrow=none;html=1;rounded=0;entryX=0.5;entryY=0.5;entryDx=0;entryDy=0;entryPerimeter=0;exitX=1;exitY=0.5;exitDx=0;exitDy=0;" edge="1" parent="1" source="aeuv3wMsK-wRUXpCHh5g-21" target="wDu6coxrCI0hIiS3W681-21">
          <mxGeometry width="50" height="50" relative="1" as="geometry">
            <mxPoint x="140" y="350" as="sourcePoint" />
            <mxPoint x="452" y="160" as="targetPoint" />
          </mxGeometry>
        </mxCell>
        <mxCell id="aeuv3wMsK-wRUXpCHh5g-25" value="" style="endArrow=none;html=1;rounded=0;entryX=0;entryY=1;entryDx=0;entryDy=0;entryPerimeter=0;exitX=0.988;exitY=0.306;exitDx=0;exitDy=0;exitPerimeter=0;" edge="1" parent="1" source="aeuv3wMsK-wRUXpCHh5g-22" target="wDu6coxrCI0hIiS3W681-21">
          <mxGeometry width="50" height="50" relative="1" as="geometry">
            <mxPoint x="150" y="360" as="sourcePoint" />
            <mxPoint x="462" y="170" as="targetPoint" />
          </mxGeometry>
        </mxCell>
        <mxCell id="aeuv3wMsK-wRUXpCHh5g-26" value="" style="endArrow=none;html=1;rounded=0;exitX=0.75;exitY=0.027;exitDx=0;exitDy=0;exitPerimeter=0;" edge="1" parent="1" source="aeuv3wMsK-wRUXpCHh5g-1" target="wDu6coxrCI0hIiS3W681-21">
          <mxGeometry width="50" height="50" relative="1" as="geometry">
            <mxPoint x="160" y="370" as="sourcePoint" />
            <mxPoint x="472" y="180" as="targetPoint" />
          </mxGeometry>
        </mxCell>
        <mxCell id="aeuv3wMsK-wRUXpCHh5g-27" value="" style="endArrow=none;html=1;rounded=0;" edge="1" parent="1" target="aeuv3wMsK-wRUXpCHh5g-22">
          <mxGeometry width="50" height="50" relative="1" as="geometry">
            <mxPoint x="120" y="330" as="sourcePoint" />
            <mxPoint x="482" y="190" as="targetPoint" />
          </mxGeometry>
        </mxCell>
        <mxCell id="aeuv3wMsK-wRUXpCHh5g-28" value="" style="endArrow=none;html=1;rounded=0;" edge="1" parent="1" target="aeuv3wMsK-wRUXpCHh5g-1">
          <mxGeometry width="50" height="50" relative="1" as="geometry">
            <mxPoint x="120" y="330" as="sourcePoint" />
            <mxPoint x="492" y="200" as="targetPoint" />
          </mxGeometry>
        </mxCell>
      </root>
    </mxGraphModel>
  </diagram>
</mxfile>
